<svg id="Warstwa_1" data-name="Warstwa 1" xmlns="http://www.w3.org/2000/svg" viewBox="0 0 138.52 67.02"><defs><style>.cls-1{fill:#222;}</style></defs><g id="logo"><g id="Group_704" data-name="Group 704"><path id="Path_1543" data-name="Path 1543" class="cls-1" d="M25.79,28.24a6.47,6.47,0,0,0,12.57,0h4.23a.57.57,0,0,0,.55-.44L49.53,3.58h4.73A.54.54,0,0,0,54.82,3h0V.56A.56.56,0,0,0,54.26,0H47.2a.55.55,0,0,0-.54.42l-6.4,24.23h-2a6.47,6.47,0,0,0-12.28,0H21a6.47,6.47,0,0,0-12.28,0H6.81L4.18,10H39a.56.56,0,0,0,.56-.56h0V7A.56.56,0,0,0,39,6.41H.56a.55.55,0,0,0-.43.2A.54.54,0,0,0,0,7.07L3.68,27.5l0,.27a.57.57,0,0,0,.56.47H8.52a6.49,6.49,0,0,0,10.23,3.6L10.67,46.31l-.47.8a.58.58,0,0,0,.2.77.57.57,0,0,0,.28.08h8.5v9.8a5.5,5.5,0,0,0,5.49,5.48H38a5.5,5.5,0,0,0,5.49-5.49V33.1a.57.57,0,0,0-.56-.56H40.45a.56.56,0,0,0-.56.56h0V57.4a2.26,2.26,0,0,1-2.26,2.26H25a2.26,2.26,0,0,1-2.26-2.25v-2h6.34a5.5,5.5,0,0,0,5.5-5.49V47.4a.56.56,0,0,0-.56-.55H31.57a.55.55,0,0,0-.4.16.59.59,0,0,0-.16.4v2a2.38,2.38,0,0,1-2.37,2.37H22.77V48h2.89a.56.56,0,0,0,.56-.55h0V44.94a.56.56,0,0,0-.55-.56h-9.9l9-16.14Zm6.28-4.46a2.92,2.92,0,1,1-2.92,2.91A2.91,2.91,0,0,1,32.07,23.78ZM14.81,29.61a2.92,2.92,0,1,1,2.92-2.92h0A2.92,2.92,0,0,1,14.81,29.61Z" transform="translate(0 0)"/><g id="Group_703" data-name="Group 703"><path id="Path_1544" data-name="Path 1544" class="cls-1" d="M53,12.24c-.26-1.09.24-1.75,1.33-1.75h2A1.53,1.53,0,0,1,58,11.84v0l.78,5.25a6.92,6.92,0,0,1,.07,1.28h0s.07-.71.17-1.28l1-5.28a1.56,1.56,0,0,1,1.68-1.37h1.4a1.55,1.55,0,0,1,1.68,1.37l1,5.28c.06.43.1.85.12,1.28h.05A9.18,9.18,0,0,1,66,17.12l.78-5.25a1.56,1.56,0,0,1,1.68-1.38h2c1.08,0,1.58.67,1.32,1.75l-2.39,9.22a1.6,1.6,0,0,1-1.7,1.33h-2.8a1.59,1.59,0,0,1-1.7-1.36l-.53-3.31c-.1-.57-.19-1.3-.19-1.3h0s-.1.74-.19,1.3l-.54,3.31A1.57,1.57,0,0,1,60,22.79H57.11a1.6,1.6,0,0,1-1.7-1.33Z" transform="translate(0 0)"/><path id="Path_1545" data-name="Path 1545" class="cls-1" d="M78,10.21a5.5,5.5,0,0,1,5.85,5.13c0,.21,0,.42,0,.62a1.68,1.68,0,0,1-1.63,1.62H76.5A2.28,2.28,0,0,0,78.8,19a5.08,5.08,0,0,0,1.92-.4c.92-.4,1.61-.29,2.08.61l.38.74a1.43,1.43,0,0,1-.33,2l-.21.13a9.47,9.47,0,0,1-4.27,1c-4.64,0-6.86-3.34-6.86-6.45a6.15,6.15,0,0,1,5.85-6.43C77.58,10.19,77.8,10.2,78,10.21Zm1.09,4.88a1.27,1.27,0,0,0-1-1.52l-.17,0c-1.07,0-1.38.8-1.43,1.54Z" transform="translate(0 0)"/><path id="Path_1546" data-name="Path 1546" class="cls-1" d="M84.59,7.3A1.4,1.4,0,0,1,85.8,5.75H88A1.38,1.38,0,0,1,89.54,7a1,1,0,0,1,0,.35v3.07c0,.78,0,1.3,0,1.3h0a3.66,3.66,0,0,1,3.13-1.46c3.2,0,5.5,2.63,5.5,6.35,0,4-2.53,6.51-5.68,6.51a3.48,3.48,0,0,1-3.32-1.68h0a1.42,1.42,0,0,1-1.44,1.4H86.15a1.41,1.41,0,0,1-1.56-1.21,1.82,1.82,0,0,1,0-.33ZM91.25,19a2,2,0,0,0,2-2.06,1,1,0,0,0,0-.24c0-1.4-.78-2.39-1.9-2.39a2,2,0,0,0-1.92,2.11.66.66,0,0,0,0,.14C89.4,18,90.06,19,91.25,19Z" transform="translate(0 0)"/><path id="Path_1547" data-name="Path 1547" class="cls-1" d="M53.58,31.77a1.38,1.38,0,0,1,1.21-1.54,2.16,2.16,0,0,1,.36,0H57a1.38,1.38,0,0,1,1.54,1.2,1,1,0,0,1,0,.34v10.9c0,4-4.19,4.81-5.45,4.81h-.5A1.38,1.38,0,0,1,51,46.27a2,2,0,0,1,0-.35v-1c0-1.25.81-1.42,1.54-1.54a1.05,1.05,0,0,0,1-1.11Zm.1-4.24V27a1.38,1.38,0,0,1,1.16-1.54,1.61,1.61,0,0,1,.38,0H56.9a1.36,1.36,0,0,1,1.54,1.16,1.15,1.15,0,0,1,0,.37v.5a1.39,1.39,0,0,1-1.19,1.56,1.36,1.36,0,0,1-.35,0H55.22a1.38,1.38,0,0,1-1.54-1.21A1.09,1.09,0,0,1,53.68,27.53Z" transform="translate(0 0)"/><path id="Path_1548" data-name="Path 1548" class="cls-1" d="M65.87,35.06h.24v-.4c0-.59-.69-.75-1.33-.75a5.5,5.5,0,0,0-2,.45,1.41,1.41,0,0,1-2-.43,1.47,1.47,0,0,1-.14-.28l-.33-.71A1.41,1.41,0,0,1,60.79,31a1.15,1.15,0,0,1,.25-.12A10.06,10.06,0,0,1,65.26,30c3.52,0,5.77,2,5.77,5.12V41a1.37,1.37,0,0,1-1.19,1.54H68.09c-1,0-1.47-.57-1.54-1.63h0a3.86,3.86,0,0,1-3.46,1.92A3.75,3.75,0,0,1,59.1,39.3V39C59.1,36.13,62.61,35.06,65.87,35.06ZM64.55,39.4a1.58,1.58,0,0,0,1.61-1.55v-.3H65.9c-1.35,0-2.32.38-2.32,1C63.58,39,63.84,39.4,64.55,39.4Z" transform="translate(0 0)"/><path id="Path_1549" data-name="Path 1549" class="cls-1" d="M72.2,27a1.4,1.4,0,0,1,1.21-1.55,1.37,1.37,0,0,1,.35,0h1.85a1.36,1.36,0,0,1,1.54,1.19,1,1,0,0,1,0,.34V34.1h.9l1.43-2.82a1.86,1.86,0,0,1,1.82-1h1.9c1.25,0,1.68.79,1,1.84L82,35.9v0l2.78,4.74c.64,1.07.21,1.85-1.05,1.85H81.56a1.92,1.92,0,0,1-1.83-1.12l-1.54-3.22h-1V41a1.38,1.38,0,0,1-1.21,1.54H73.76a1.39,1.39,0,0,1-1.56-1.21,1.82,1.82,0,0,1,0-.33Z" transform="translate(0 0)"/><path id="Path_1550" data-name="Path 1550" class="cls-1" d="M53.44,59.38l.4-.64c.52-.81,1.14-.88,2.14-.5a5.39,5.39,0,0,0,2,.52c.52,0,.71-.22.71-.47,0-1-5.5-.15-5.5-4.46,0-2.75,2.39-4.14,5.33-4.14a9.2,9.2,0,0,1,3.62.71,1.4,1.4,0,0,1,.7,1.86,1.59,1.59,0,0,1-.13.22l-.33.67c-.22.44-.57,1.2-2,.73a6.41,6.41,0,0,0-1.94-.42c-.47,0-.66.16-.66.45,0,1,5.5.09,5.5,4.33,0,2.46-2,4.31-5.26,4.31a8.62,8.62,0,0,1-4.18-1,1.38,1.38,0,0,1-.61-1.84A1.69,1.69,0,0,1,53.44,59.38Z" transform="translate(0 0)"/><path id="Path_1551" data-name="Path 1551" class="cls-1" d="M64,46.78a1.4,1.4,0,0,1,1.21-1.55,1.45,1.45,0,0,1,.36,0h1.84A1.36,1.36,0,0,1,69,46.43a1,1,0,0,1,0,.35v7.06h.9L71.29,51A1.88,1.88,0,0,1,73.12,50H75c1.25,0,1.68.8,1,1.85l-2.2,3.82v0l2.78,4.74c.64,1.07.21,1.85-1,1.85H73.38a1.91,1.91,0,0,1-1.83-1.11L70,57.93H69v2.8a1.38,1.38,0,0,1-1.21,1.54H65.59A1.41,1.41,0,0,1,64,61.05a1.71,1.71,0,0,1,0-.32Z" transform="translate(0 0)"/><path id="Path_1552" data-name="Path 1552" class="cls-1" d="M77.08,46.78a1.4,1.4,0,0,1,1.21-1.55,1.36,1.36,0,0,1,.35,0h1.85A1.37,1.37,0,0,1,82,46.43a2,2,0,0,1,0,.35V57c0,.73.16,1,.5,1a1.14,1.14,0,0,1,1.09,1.2v1.55a1.39,1.39,0,0,1-1.2,1.56,1.15,1.15,0,0,1-.37,0c-2.49,0-5-.59-5-5.19Z" transform="translate(0 0)"/><path id="Path_1553" data-name="Path 1553" class="cls-1" d="M89.83,49.69a5.5,5.5,0,0,1,5.85,5.13q0,.32,0,.63a1.66,1.66,0,0,1-1.63,1.6H88.32a2.27,2.27,0,0,0,2.3,1.42,4.72,4.72,0,0,0,1.92-.4,1.4,1.4,0,0,1,1.94.37.89.89,0,0,1,.14.25l.38.73a1.44,1.44,0,0,1-.33,2l-.21.13a9.46,9.46,0,0,1-4.27,1c-4.64,0-6.87-3.34-6.87-6.44a6.15,6.15,0,0,1,5.87-6.42Zm1.09,4.88a1.27,1.27,0,0,0-1-1.52l-.17,0c-1.06,0-1.37.81-1.41,1.54Z" transform="translate(0 0)"/><path id="Path_1554" data-name="Path 1554" class="cls-1" d="M96.41,51.52A1.4,1.4,0,0,1,97.62,50h1.66c1,0,1.54.53,1.54,1.26v.33h0a3.85,3.85,0,0,1,3.53-1.87c3.37,0,5.6,2.63,5.6,6.44s-2.49,6.42-5.78,6.42a3,3,0,0,1-2.85-1.28h0s0,.52,0,1.28v2.92A1.38,1.38,0,0,1,100.15,67H98a1.4,1.4,0,0,1-1.56-1.21,1.22,1.22,0,0,1,0-.33Zm6.73,7a2,2,0,0,0,1.91-2.11.86.86,0,0,0,0-.16c0-1.45-.78-2.42-1.92-2.42-1,0-1.9.74-1.9,2.42A2,2,0,0,0,103,58.48l.18,0Z" transform="translate(0 0)"/></g></g><g id="Group_705" data-name="Group 705"><path id="Path_1555" data-name="Path 1555" class="cls-1" d="M110.9,61.2a.44.44,0,0,1,.37-.49H112a.44.44,0,0,1,.49.37.24.24,0,0,1,0,.12v.58a.44.44,0,0,1-.37.49h-.68a.44.44,0,0,1-.49-.37v-.7Z" transform="translate(0 0)"/><path id="Path_1556" data-name="Path 1556" class="cls-1" d="M117.13,54.61c2.06,0,3.22,1.48,3.22,3.56a.5.5,0,0,1-.5.5h-5a2.51,2.51,0,0,0,2.52,2.53h.06a3,3,0,0,0,1.78-.59.43.43,0,0,1,.61.07.24.24,0,0,1,.06.09L120,61a.43.43,0,0,1-.08.61l-.06,0a4.59,4.59,0,0,1-2.53.8,3.81,3.81,0,0,1-4-3.66v-.27a3.67,3.67,0,0,1,3.41-3.91Zm1.78,3.11a1.82,1.82,0,0,0-1.64-2h-.18a2.21,2.21,0,0,0-2.19,2Z" transform="translate(0 0)"/><path id="Path_1557" data-name="Path 1557" class="cls-1" d="M121.47,55.27a.43.43,0,0,1,.36-.49h.58a.43.43,0,0,1,.48.38v4.09c0,1,.22,1.86,1.4,1.86a2.57,2.57,0,0,0,2.45-2.7s0-.08,0-.12v-3a.43.43,0,0,1,.36-.49h.59a.43.43,0,0,1,.48.38.2.2,0,0,1,0,.11v6.51a.44.44,0,0,1-.38.49h-.52a.44.44,0,0,1-.49-.37v-.79a2.1,2.1,0,0,1,0-.43h0A3.13,3.13,0,0,1,124,62.45c-1.69,0-2.55-.89-2.55-2.88Z" transform="translate(0 0)"/></g></g><path class="cls-1" d="M134.19,52.39a4.27,4.27,0,0,1-1.68-.33,4.44,4.44,0,0,1-2.31-2.31,4.44,4.44,0,0,1,0-3.36,4.39,4.39,0,0,1,.94-1.38,4.16,4.16,0,0,1,1.37-.93,4.35,4.35,0,0,1,3.37,0,4.38,4.38,0,0,1,2.3,2.31,4.32,4.32,0,0,1,0,3.36,4.31,4.31,0,0,1-.93,1.38,4.49,4.49,0,0,1-1.37.93A4.28,4.28,0,0,1,134.19,52.39Zm0-.74a3.46,3.46,0,0,0,1.37-.28,3.53,3.53,0,0,0,1.12-.78,3.85,3.85,0,0,0,.76-1.14,3.66,3.66,0,0,0,0-2.76,3.61,3.61,0,0,0-.76-1.14,3.53,3.53,0,0,0-1.12-.78,3.29,3.29,0,0,0-1.37-.28,3.36,3.36,0,0,0-1.37.28,3.6,3.6,0,0,0-1.11.78,3.76,3.76,0,0,0-.75,1.14,3.66,3.66,0,0,0,0,2.76,4,4,0,0,0,.75,1.14,3.6,3.6,0,0,0,1.11.78A3.53,3.53,0,0,0,134.19,51.65Zm-1.39-1.4c-.18,0-.26-.08-.26-.26V46.12a.23.23,0,0,1,.26-.26h1.57a2.57,2.57,0,0,1,.85.13,1.3,1.3,0,0,1,.61.44,1.35,1.35,0,0,1,.24.84,1.27,1.27,0,0,1-.24.8,1.25,1.25,0,0,1-.59.45l.77,1.3a.43.43,0,0,1,0,.07s0,.06,0,.1a.24.24,0,0,1-.07.18.22.22,0,0,1-.2.08h-.32a.37.37,0,0,1-.21-.06.56.56,0,0,1-.14-.16l-.78-1.34h-.91V50c0,.18-.09.26-.27.26Zm.63-2.35h.92a.84.84,0,0,0,.65-.19.66.66,0,0,0,.17-.44.67.67,0,0,0-.17-.44.84.84,0,0,0-.65-.19h-.92Z" transform="translate(0 0)"/></svg>